<?xml version="1.0" encoding="UTF-8" standalone="no"?>
<!-- Created with Inkscape (http://www.inkscape.org/) -->

<svg
   width="98.152267"
   height="89.205063"
   viewBox="0 0 25.969454 23.602173"
   version="1.1"
   id="svg5"
   inkscape:version="1.3 (0e150ed6c4, 2023-07-21)"
   xml:space="preserve"
   sodipodi:docname="Inventor v2.0.svg"
   xmlns:inkscape="http://www.inkscape.org/namespaces/inkscape"
   xmlns:sodipodi="http://sodipodi.sourceforge.net/DTD/sodipodi-0.dtd"
   xmlns="http://www.w3.org/2000/svg"
   xmlns:svg="http://www.w3.org/2000/svg"><sodipodi:namedview
     id="namedview7"
     pagecolor="#d5d5d5"
     bordercolor="#eeeeee"
     borderopacity="1"
     inkscape:showpageshadow="0"
     inkscape:pageopacity="0"
     inkscape:pagecheckerboard="0"
     inkscape:deskcolor="#c4af84"
     inkscape:document-units="px"
     showgrid="false"
     inkscape:zoom="3.6929312"
     inkscape:cx="-42.513654"
     inkscape:cy="130.65502"
     inkscape:window-width="2386"
     inkscape:window-height="2040"
     inkscape:window-x="-9"
     inkscape:window-y="0"
     inkscape:window-maximized="0"
     inkscape:current-layer="layer4"
     showguides="false"><sodipodi:guide
       position="51.053545,46.307076"
       orientation="1,0"
       id="guide3"
       inkscape:locked="false" /><sodipodi:guide
       position="48.906117,44.629491"
       orientation="0,-1"
       id="guide4"
       inkscape:locked="false" /><sodipodi:guide
       position="47.259441,43.427199"
       orientation="0,-1"
       id="guide5"
       inkscape:locked="false" /><sodipodi:guide
       position="47.259441,47.140816"
       orientation="0,-1"
       id="guide6"
       inkscape:locked="false" /><sodipodi:guide
       position="46.463695,46.290897"
       orientation="1,0"
       id="guide7"
       inkscape:locked="false" /><sodipodi:guide
       position="51.053545,42.626335"
       orientation="0,-1"
       id="guide8"
       inkscape:locked="false" /><sodipodi:guide
       position="46.90361,42.909469"
       orientation="1,0"
       id="guide10"
       inkscape:locked="false" /><sodipodi:guide
       position="46.793383,42.544263"
       orientation="0.4970971,-0.86769492"
       id="guide12"
       inkscape:label=""
       inkscape:locked="false"
       inkscape:color="rgb(0,134,229)" /><sodipodi:guide
       position="46.463695,46.664509"
       orientation="0.49709709,-0.86769493"
       id="guide13"
       inkscape:label=""
       inkscape:locked="false"
       inkscape:color="rgb(0,134,229)" /><sodipodi:guide
       position="49.291421,46.314804"
       orientation="0,-1"
       id="guide14"
       inkscape:locked="false" /><sodipodi:guide
       position="48.952424,45.79992"
       orientation="1,0"
       id="guide15"
       inkscape:locked="false" /><sodipodi:guide
       position="49.42578,45.893124"
       orientation="1,0"
       id="guide16"
       inkscape:locked="false" /><sodipodi:guide
       position="48.799461,45.936533"
       orientation="0,-1"
       id="guide17"
       inkscape:locked="false" /><sodipodi:guide
       position="49.690363,46.314804"
       orientation="1,0"
       id="guide18"
       inkscape:locked="false" /><sodipodi:guide
       position="48.622728,46.314804"
       orientation="1,0"
       id="guide19"
       inkscape:locked="false" /><sodipodi:guide
       position="49.540502,44.240512"
       orientation="0,-1"
       id="guide20"
       inkscape:locked="false" /><sodipodi:guide
       position="51.422874,45.887728"
       orientation="1,0"
       id="guide11"
       inkscape:locked="false" /><sodipodi:guide
       position="47.5892,46.713518"
       orientation="1,0"
       id="guide21"
       inkscape:locked="false" /><sodipodi:guide
       position="47.5892,43.000182"
       orientation="0,-1"
       id="guide22"
       inkscape:locked="false" /><sodipodi:guide
       position="47.231543,42.795283"
       orientation="1,0"
       id="guide24"
       inkscape:locked="false" /><sodipodi:guide
       position="51.379312,45.936533"
       orientation="1,0"
       id="guide28"
       inkscape:locked="false" /><sodipodi:guide
       position="49.230443,44.888348"
       orientation="0,-1"
       id="guide29"
       inkscape:locked="false" /></sodipodi:namedview><defs
     id="defs2" /><g
     inkscape:groupmode="layer"
     id="layer5"
     inkscape:label="Outline"
     style="display:none"
     sodipodi:insensitive="true"
     transform="translate(6.2946015,-31.626542)"><path
       id="path10"
       style="display:inline;fill:none;fill-opacity:1;stroke:#d9b4c6;stroke-width:0.529167;stroke-linecap:round;stroke-linejoin:round;stroke-dasharray:none;stroke-opacity:1;paint-order:normal"
       d="m 37.765717,28.80499 v 1.995061 h 1.425426 v 3.12904 0.386826 3.129039 h -1.425426 v 1.995059 h 5.473831 v -1.995061 h -1.356533 v -3.129039 -0.386824 -3.12904 h 1.356533 V 28.80499 h -5.473831"
       sodipodi:nodetypes="ccccccccccccccccc"
       transform="translate(26.508938,8.3098709)" /><path
       id="path11"
       style="display:inline;fill:none;fill-opacity:1;stroke:#d9b4c6;stroke-width:0.529167;stroke-linecap:round;stroke-linejoin:round;stroke-dasharray:none;stroke-opacity:1;paint-order:normal"
       d="m 28.942596,44.660187 -0.0123,1.782406 c -0.0051,0.776219 0.74666,1.401577 1.671828,1.401577 h 21.5138 V 28.80499 h -1.907396 v -2.834946 c 0,-0.776235 -0.625337,-1.398927 -1.401574,-1.398927 H 30.756028 l -4.080183,2.440172 v 18.935856 l 2.266808,-1.286991 M 50.208523,28.80499 v 14.804631 h -19.43214"
       sodipodi:nodetypes="csscccssccccccc"
       transform="translate(26.508938,8.3098709)" /><path
       id="path12"
       style="display:inline;fill:none;fill-opacity:1;stroke:#d9b4c6;stroke-width:0.529167;stroke-linecap:round;stroke-linejoin:round;stroke-dasharray:none;stroke-opacity:1;paint-order:normal"
       d="m 28.930532,44.667098 1.845851,-1.057477 V 24.571117"
       sodipodi:nodetypes="ccc"
       transform="translate(26.508938,8.3098709)" /></g><g
     inkscape:groupmode="layer"
     id="layer4"
     inkscape:label="Visible Letter "
     style="display:inline"
     transform="translate(6.2946015,-31.626542)"><path
       id="path39"
       style="fill:#efcfe5;fill-opacity:1;stroke:#efcfe5;stroke-width:0.529167;stroke-linecap:round;stroke-linejoin:round;stroke-dasharray:none;stroke-opacity:1;paint-order:normal"
       d="m 4.8146525,35.649125 v 3.479328 h 1.5531497 v 2.103912 0.421488 2.547782 H 4.8146525 v 3.035454 H 10.77896 V 44.201633 H 9.3008764 V 41.653851 41.232365 39.128453 H 10.77896 V 35.649125 H 4.8146525"
       sodipodi:nodetypes="ccccccccccccccccc" /><g
       id="g38"
       style="display:inline"
       transform="translate(20.214336,39.936413)"><path
         id="path34"
         style="fill:#bb90ae;fill-opacity:1;stroke:#bb90ae;stroke-width:0.529167;stroke-linecap:round;stroke-linejoin:round;stroke-dasharray:none;stroke-opacity:1;paint-order:normal"
         d="m -23.977612,11.843737 -0.0123,1.782406 c -0.0054,0.776217 0.74666,1.401576 1.671828,1.401576 h 21.51380115 l 2.1553e-4,-18.8391535 H -2.7114663 l -2e-6,14.8046315 -19.4323567,-0.200026 -1.83373,1.050532"
         sodipodi:nodetypes="csscccccc" /><path
         id="path35"
         style="fill:#d9b4c6;fill-opacity:1;stroke:none;stroke-width:0.529167;stroke-linecap:round;stroke-linejoin:round;stroke-dasharray:none;stroke-opacity:1;paint-order:normal"
         d="m -22.163799,-8.0452119 0.01964,18.4210979 5.17e-4,0.617533 h 0.525549 18.9068565 v -14.8047809 -2.834969 c 0,-0.7762336 -0.6257462,-1.398881 -1.4019816,-1.398881 z m 6.989754,3.9377441 h 5.4730513 c 0.1461703,-5.616e-4 0.2650998,0.1173793 0.2656169,0.2635498 v 1.9962605 c -5.172e-4,0.1461705 -0.1194466,0.2641114 -0.2656169,0.2635498 h -1.0919233 v 6.115389 h 1.0919233 c 0.1469338,-5.647e-4 0.2661816,0.1186831 0.2656169,0.2656168 v 1.9941935 c 5.647e-4,0.1469338 -0.1186831,0.2661816 -0.2656169,0.2656169 h -5.4730513 c -0.146933,5.647e-4 -0.266181,-0.1186831 -0.265616,-0.2656169 V 4.7968981 c -5.65e-4,-0.1469337 0.118683,-0.2661815 0.265616,-0.2656168 h 1.160136 v -6.115389 h -1.160136 c -0.146169,5.616e-4 -0.265099,-0.1173793 -0.265616,-0.2635498 V -3.843918 c 5.03e-4,-0.1461766 0.119441,-0.2641261 0.265616,-0.2635498 z" /><path
         id="path36"
         style="fill:#efcfe5;fill-opacity:1;stroke:#efcfe5;stroke-width:0.529167;stroke-linecap:round;stroke-linejoin:round;stroke-dasharray:none;stroke-opacity:1;paint-order:normal"
         d="m -22.143825,10.793171 -0.02013,-18.8384785 -4.080183,2.440172 -2.16e-4,18.7358295 z"
         sodipodi:nodetypes="ccccc" /><path
         id="path37"
         style="fill:none;fill-opacity:1;stroke:none;stroke-width:0.529167;stroke-linecap:round;stroke-linejoin:round;stroke-dasharray:none;stroke-opacity:1;paint-order:normal"
         d="m -22.163799,-8.0452119 0.01964,18.4210979 5.17e-4,0.617533 h 0.525549 18.9068565 v -14.8047809 -2.834969 c 0,-0.7762343 -0.6257454,-1.398881 -1.4019816,-1.398881 z m 7.009682,4.2344162 h 5.4735025 V -1.815781 H -11.036976 V 1.3128937 1.6993922 4.828067 h 1.3563615 V 6.8230816 H -15.154117 V 4.828067 h 1.425602 V 1.6993922 1.3128937 -1.815781 h -1.425602 z"
         sodipodi:nodetypes="ccccccsscccccccccccccccccc" /><path
         id="path38"
         style="display:inline;fill:none;fill-opacity:1;stroke:#d9b4c6;stroke-width:0.529167;stroke-linecap:round;stroke-linejoin:round;stroke-dasharray:none;stroke-opacity:1;paint-order:normal"
         d="m -22.163799,-8.0452119 0.01964,18.4210979 5.17e-4,0.617533 h 0.525549 18.9068565 v -14.8047809 -2.834969 c 0,-0.7762343 -0.6257454,-1.398881 -1.4019816,-1.398881 z"
         sodipodi:nodetypes="ccccccssc" /></g></g><g
     inkscape:groupmode="layer"
     id="layer3"
     inkscape:label="Transparent Letter"
     style="display:none"
     transform="translate(6.2946015,-31.626542)"
     sodipodi:insensitive="true"><g
       id="g34"
       style="display:inline"
       transform="translate(26.508938,8.3098709)"><path
         id="path18"
         style="fill:#bb90ae;fill-opacity:1;stroke:#bb90ae;stroke-width:0.529167;stroke-linecap:round;stroke-linejoin:round;stroke-dasharray:none;stroke-opacity:1;paint-order:normal"
         d="m -23.977612,11.843737 -0.0123,1.782406 c -0.0054,0.776217 0.74666,1.401576 1.671828,1.401576 h 21.51380115 l 2.1553e-4,-18.8391535 H -2.7114663 l -2e-6,14.8046315 -19.4323567,-0.200026 -1.83373,1.050532"
         sodipodi:nodetypes="csscccccc" /><path
         id="path32"
         style="fill:#d9b4c6;fill-opacity:1;stroke:none;stroke-width:0.529167;stroke-linecap:round;stroke-linejoin:round;stroke-dasharray:none;stroke-opacity:1;paint-order:normal"
         d="m -22.163799,-8.0452119 0.01964,18.4210979 5.17e-4,0.617533 h 0.525549 18.9068565 v -14.8047809 -2.834969 c 0,-0.7762336 -0.6257462,-1.398881 -1.4019816,-1.398881 z m 6.989754,3.9377441 h 5.4730513 c 0.1461703,-5.616e-4 0.2650998,0.1173793 0.2656169,0.2635498 v 1.9962605 c -5.172e-4,0.1461705 -0.1194466,0.2641114 -0.2656169,0.2635498 h -1.0919233 v 6.115389 h 1.0919233 c 0.1469338,-5.647e-4 0.2661816,0.1186831 0.2656169,0.2656168 v 1.9941935 c 5.647e-4,0.1469338 -0.1186831,0.2661816 -0.2656169,0.2656169 h -5.4730513 c -0.146933,5.647e-4 -0.266181,-0.1186831 -0.265616,-0.2656169 V 4.7968981 c -5.65e-4,-0.1469337 0.118683,-0.2661815 0.265616,-0.2656168 h 1.160136 v -6.115389 h -1.160136 c -0.146169,5.616e-4 -0.265099,-0.1173793 -0.265616,-0.2635498 V -3.843918 c 5.03e-4,-0.1461766 0.119441,-0.2641261 0.265616,-0.2635498 z" /><path
         id="path19"
         style="fill:#efcfe5;fill-opacity:1;stroke:#efcfe5;stroke-width:0.529167;stroke-linecap:round;stroke-linejoin:round;stroke-dasharray:none;stroke-opacity:1;paint-order:normal"
         d="m -22.143825,10.793171 -0.02013,-18.8384785 -4.080183,2.440172 -2.16e-4,18.7358295 z"
         sodipodi:nodetypes="ccccc" /><path
         id="path23"
         style="fill:none;fill-opacity:1;stroke:none;stroke-width:0.529167;stroke-linecap:round;stroke-linejoin:round;stroke-dasharray:none;stroke-opacity:1;paint-order:normal"
         d="m -22.163799,-8.0452119 0.01964,18.4210979 5.17e-4,0.617533 h 0.525549 18.9068565 v -14.8047809 -2.834969 c 0,-0.7762343 -0.6257454,-1.398881 -1.4019816,-1.398881 z m 7.009682,4.2344162 h 5.4735025 V -1.815781 H -11.036976 V 1.3128937 1.6993922 4.828067 h 1.3563615 V 6.8230816 H -15.154117 V 4.828067 h 1.425602 V 1.6993922 1.3128937 -1.815781 h -1.425602 z"
         sodipodi:nodetypes="ccccccsscccccccccccccccccc" /><path
         id="path22"
         style="display:inline;fill:none;fill-opacity:1;stroke:#d9b4c6;stroke-width:0.529167;stroke-linecap:round;stroke-linejoin:round;stroke-dasharray:none;stroke-opacity:1;paint-order:normal"
         d="m -22.163799,-8.0452119 0.01964,18.4210979 5.17e-4,0.617533 h 0.525549 18.9068565 v -14.8047809 -2.834969 c 0,-0.7762343 -0.6257454,-1.398881 -1.4019816,-1.398881 z"
         sodipodi:nodetypes="ccccccssc" /></g></g><g
     inkscape:groupmode="layer"
     id="layer2"
     inkscape:label="Extra Parts"
     style="display:none"
     transform="translate(32.803538,-23.316671)"
     sodipodi:insensitive="true"><path
       id="path25"
       style="opacity:0.533163;fill:#dd98ba;fill-opacity:1;stroke:none;stroke-width:1.32292;stroke-linecap:round;stroke-linejoin:round;stroke-dasharray:none;stroke-opacity:1;paint-order:stroke fill markers"
       d="m 82.780376,-20.808439 v 19.038504 l -0.135406,0.077567 v -19.035095 l -3.944777,2.359196 V 0.56758865 L 80.95488,-0.7227094 82.780376,-1.769935 h 19.452504 v 0.1357441 l -19.452504,3.764e-4 -1.83373,1.04724501 0.0082,1.64960669 c 0.0039,0.776227 0.746659,1.4015763 1.671827,1.4015763 H 104.14048 V -16.574566 H 102.369 V 2.4646187 l -0.13612,-6e-7 c 7e-5,-6.5132365 -10e-6,-12.6935601 -10e-6,-19.0391841 v -2.834947 c 0,-0.776234 -0.62534,-1.398926 -1.40157,-1.398926 z m 6.989334,4.233873 h 5.473832 v 1.939422 h -1.356534 v 6.700542 h 1.356534 v 1.995061 H 89.76971 v -1.995061 h 1.425421 v -6.700542 H 89.76971 Z"
       sodipodi:nodetypes="ccccccccccccssccccccsscccccccccccccc" /><path
       id="path26"
       style="opacity:0.533163;fill:#dd98ba;fill-opacity:1;stroke:none;stroke-width:1.32292;stroke-linecap:round;stroke-linejoin:round;stroke-dasharray:none;stroke-opacity:1;paint-order:stroke fill markers"
       d="m 9.8055561,-18.773603 -4.0801829,2.440172 V 2.6024249 L 7.9800604,1.3121268 7.9800297,3.0978734 C 7.9800143,3.8741102 8.7266889,4.4994498 9.651857,4.4994498 H 31.165659 V -14.539729 h -1.907605 v -2.834947 c 0,-0.776235 -0.625338,-1.398927 -1.401575,-1.398927 z m 6.9893349,4.233874 h 5.473831 v 1.939421 h -1.356534 v 6.7005422 h 1.356534 v 1.995061 h -5.473831 v -1.995061 h 1.42542 v -6.7005422 h -1.42542 z"
       sodipodi:nodetypes="ccccsscccsscccccccccccccc" /><path
       id="path7"
       style="display:inline;opacity:1;fill:#d9b4c6;fill-opacity:1;stroke:#d9b4c6;stroke-width:0.529167;stroke-linecap:round;stroke-linejoin:round;stroke-dasharray:none;stroke-opacity:1;paint-order:markers stroke fill"
       d="m 71.610178,-14.499831 v -2.834946 c 0,-0.776235 -0.625337,-1.398927 -1.401574,-1.398927 H 52.157678 l 0.02035,19.03856771 19.432143,-6.366e-5 V -14.499831"
       sodipodi:nodetypes="csscccc" /><path
       id="path6"
       style="opacity:1;fill:#e3e3e3;fill-opacity:1;stroke:#e3e3e3;stroke-width:0.529167;stroke-linecap:round;stroke-linejoin:round;stroke-dasharray:none;stroke-opacity:1;paint-order:markers stroke fill"
       d="m 59.167367,-14.499831 v 1.995061 h 1.425426 v 3.1290391 0.386827 3.129039 h -1.425426 v 1.995058 h 5.473831 v -1.99506 h -1.356533 v -3.129039 -0.386825 -3.1290391 h 1.356533 v -1.995061 h -5.473831"
       sodipodi:nodetypes="ccccccccccccccccc" /><path
       id="path28"
       style="display:inline;opacity:1;fill:#bb90ae;fill-opacity:1;stroke:#bb90ae;stroke-width:1.05833;stroke-linecap:round;stroke-linejoin:round;stroke-dasharray:none;stroke-opacity:1;paint-order:normal"
       d="m 66.106341,30.300304 -0.0123,1.782407 c -0.0051,0.776218 0.74666,1.401576 1.671828,1.401576 h 21.5138 v -19.03918 h -1.907396 -3e-6 l -2e-6,14.804631 -19.432145,6.4e-5 -4e-6,6.4e-5 -1.833778,1.050438"
       sodipodi:nodetypes="csscccccccc" /><path
       id="path4"
       style="display:inline;opacity:1;fill:#e0bcd5;fill-opacity:1;stroke:#e0bcd5;stroke-width:1.05833;stroke-linecap:round;stroke-linejoin:round;stroke-dasharray:none;stroke-opacity:1;paint-order:normal"
       d="m 67.940115,29.249866 -0.02015,-19.038632 -4.080371,2.440161 v 18.935796 m 0,0 4.100525,-2.337325 z"
       sodipodi:nodetypes="ccccccc" /><path
       id="path5"
       style="display:inline;opacity:1;fill:#e0bcd5;fill-opacity:1;stroke:#e0bcd5;stroke-width:1.05833;stroke-linecap:round;stroke-linejoin:round;stroke-dasharray:none;stroke-opacity:1;paint-order:normal"
       d="m 87.372273,14.445107 v -2.834946 c 0,-0.776235 -0.625337,-1.398927 -1.401574,-1.398927 H 67.919773 l 0.02035,19.038568 19.432143,-6.4e-5 V 14.445107"
       sodipodi:nodetypes="csscccc" /><path
       id="path27"
       style="opacity:1;fill:#f4d0e9;fill-opacity:1;stroke:#f4d0e9;stroke-width:0.529167;stroke-linecap:round;stroke-linejoin:round;stroke-dasharray:none;stroke-opacity:1;paint-order:normal"
       d="m 74.929462,14.445107 v 1.995061 h 1.425426 v 3.129039 0.386827 3.129039 h -1.425426 v 1.995058 h 5.473831 v -1.99506 H 79.04676 v -3.129039 -0.386825 -3.129039 h 1.356533 v -1.995061 h -5.473831"
       sodipodi:nodetypes="ccccccccccccccccc" /><path
       id="path20"
       style="display:inline;fill:#d9b4c6;fill-opacity:1;stroke:#d9b4c6;stroke-width:0.529167;stroke-linecap:round;stroke-linejoin:round;stroke-dasharray:none;stroke-opacity:1;paint-order:normal"
       d="m -48.447885,-8.0441387 h 0.525688 18.906453 l 2e-6,-14.8046313 3e-6,-2.834946 c 0,-0.776235 -0.625337,-1.398927 -1.401574,-1.398927 H -48.46824 l 0.01969,18.4213473 z"
       sodipodi:nodetypes="cccccsccc" /><path
       id="path21"
       style="display:inline;fill:#efcfe5;fill-opacity:1;stroke:#efcfe5;stroke-width:0.529167;stroke-linecap:round;stroke-linejoin:round;stroke-dasharray:none;stroke-opacity:1;paint-order:normal"
       d="m -41.478905,-22.880903 v 1.995061 h 1.425426 v 3.12904 0.386826 3.129039 h -1.425426 v 1.995059 h 5.473831 v -1.995061 h -1.356533 v -3.129039 -0.386824 -3.12904 h 1.356533 v -1.995061 h -5.473831"
       sodipodi:nodetypes="ccccccccccccccccc" /><path
       style="color:#000000;display:inline;fill:#efcfe5;stroke-linecap:round;stroke-linejoin:round;-inkscape-stroke:none"
       d="m -10.302513,-33.43316 v 1.995061 h 1.4254263 v 6.644905 h -1.4254263 v 1.995059 h 5.4738309 v -1.995061 h -1.3565326 v -6.644903 h 1.3565326 v -1.995061 h -5.4738309"
       id="path30" /><path
       id="path33"
       style="display:inline;fill:none;fill-opacity:1;stroke:#efcfe5;stroke-width:0.529167;stroke-linecap:round;stroke-linejoin:round;stroke-dasharray:none;stroke-opacity:1;paint-order:normal"
       d="m -19.984943,-25.593053 v 1.995061 h 1.425426 v 3.12904 0.386826 3.129039 h -1.425426 v 1.995059 h 5.473831 v -1.995061 h -1.356533 v -3.129039 -0.386824 -3.12904 h 1.356533 v -1.995061 h -5.473831"
       sodipodi:nodetypes="ccccccccccccccccc" /></g><g
     inkscape:label="Working Layer"
     inkscape:groupmode="layer"
     id="layer1"
     transform="translate(32.803538,-23.316671)"
     style="display:none"
     sodipodi:insensitive="true" /></svg>
