<?xml version="1.0" encoding="UTF-8" standalone="no"?>
<!-- Created with Inkscape (http://www.inkscape.org/) -->

<svg
   width="101.15148"
   height="92.961143"
   viewBox="0 0 26.762996 24.595969"
   version="1.1"
   id="svg5"
   inkscape:version="1.3 (0e150ed6c4, 2023-07-21)"
   xml:space="preserve"
   sodipodi:docname="Revit.svg"
   xmlns:inkscape="http://www.inkscape.org/namespaces/inkscape"
   xmlns:sodipodi="http://sodipodi.sourceforge.net/DTD/sodipodi-0.dtd"
   xmlns="http://www.w3.org/2000/svg"
   xmlns:svg="http://www.w3.org/2000/svg"><sodipodi:namedview
     id="namedview7"
     pagecolor="#d5d5d5"
     bordercolor="#eeeeee"
     borderopacity="1"
     inkscape:showpageshadow="0"
     inkscape:pageopacity="0"
     inkscape:pagecheckerboard="0"
     inkscape:deskcolor="#c4af84"
     inkscape:document-units="px"
     showgrid="false"
     inkscape:zoom="4.6551299"
     inkscape:cx="58.215346"
     inkscape:cy="100.64166"
     inkscape:window-width="2386"
     inkscape:window-height="2040"
     inkscape:window-x="-9"
     inkscape:window-y="0"
     inkscape:window-maximized="0"
     inkscape:current-layer="layer1"
     showguides="false"><sodipodi:guide
       position="51.185629,45.774692"
       orientation="1,0"
       id="guide3"
       inkscape:locked="false" /><sodipodi:guide
       position="49.038201,44.097107"
       orientation="0,-1"
       id="guide4"
       inkscape:locked="false" /><sodipodi:guide
       position="47.391525,42.894815"
       orientation="0,-1"
       id="guide5"
       inkscape:locked="false" /><sodipodi:guide
       position="47.391525,46.608432"
       orientation="0,-1"
       id="guide6"
       inkscape:locked="false" /><sodipodi:guide
       position="46.595779,45.758513"
       orientation="1,0"
       id="guide7"
       inkscape:locked="false" /><sodipodi:guide
       position="51.185629,42.093951"
       orientation="0,-1"
       id="guide8"
       inkscape:locked="false" /><sodipodi:guide
       position="47.035694,42.377085"
       orientation="1,0"
       id="guide10"
       inkscape:locked="false" /><sodipodi:guide
       position="46.925467,42.011879"
       orientation="0.4970971,-0.86769492"
       id="guide12"
       inkscape:label=""
       inkscape:locked="false"
       inkscape:color="rgb(0,134,229)" /><sodipodi:guide
       position="46.595779,46.132125"
       orientation="0.49709709,-0.86769493"
       id="guide13"
       inkscape:label=""
       inkscape:locked="false"
       inkscape:color="rgb(0,134,229)" /><sodipodi:guide
       position="49.423505,45.78242"
       orientation="0,-1"
       id="guide14"
       inkscape:locked="false" /><sodipodi:guide
       position="49.084508,45.267536"
       orientation="1,0"
       id="guide15"
       inkscape:locked="false" /><sodipodi:guide
       position="49.557864,45.36074"
       orientation="1,0"
       id="guide16"
       inkscape:locked="false" /><sodipodi:guide
       position="48.931545,45.404149"
       orientation="0,-1"
       id="guide17"
       inkscape:locked="false" /><sodipodi:guide
       position="49.822447,45.78242"
       orientation="1,0"
       id="guide18"
       inkscape:locked="false" /><sodipodi:guide
       position="48.754812,45.78242"
       orientation="1,0"
       id="guide19"
       inkscape:locked="false" /><sodipodi:guide
       position="49.672586,43.708128"
       orientation="0,-1"
       id="guide20"
       inkscape:locked="false" /><sodipodi:guide
       position="51.554958,45.355344"
       orientation="1,0"
       id="guide11"
       inkscape:locked="false" /><sodipodi:guide
       position="47.721284,46.181134"
       orientation="1,0"
       id="guide21"
       inkscape:locked="false" /><sodipodi:guide
       position="47.721284,42.467798"
       orientation="0,-1"
       id="guide22"
       inkscape:locked="false" /><sodipodi:guide
       position="47.363627,42.262899"
       orientation="1,0"
       id="guide24"
       inkscape:locked="false" /><sodipodi:guide
       position="51.511396,45.404149"
       orientation="1,0"
       id="guide28"
       inkscape:locked="false" /><sodipodi:guide
       position="49.362527,44.355964"
       orientation="0,-1"
       id="guide29"
       inkscape:locked="false" /></sodipodi:namedview><defs
     id="defs2" /><g
     inkscape:groupmode="layer"
     id="layer5"
     inkscape:label="Outline"
     style="display:none"
     transform="translate(6.4266848,-31.294204)"
     sodipodi:insensitive="true"><path
       id="path10"
       style="display:inline;fill:none;fill-opacity:1;stroke:#d9b4c6;stroke-width:0.529167;stroke-linecap:round;stroke-linejoin:round;stroke-dasharray:none;stroke-opacity:1;paint-order:normal"
       d="m 37.765717,28.80499 v 1.995061 h 1.425426 v 3.12904 0.386826 3.129039 h -1.425426 v 1.995059 h 5.473831 v -1.995061 h -1.356533 v -3.129039 -0.386824 -3.12904 h 1.356533 V 28.80499 h -5.473831"
       sodipodi:nodetypes="ccccccccccccccccc"
       transform="translate(26.508938,8.3098709)" /><path
       id="path11"
       style="display:inline;fill:none;fill-opacity:1;stroke:#d9b4c6;stroke-width:0.529167;stroke-linecap:round;stroke-linejoin:round;stroke-dasharray:none;stroke-opacity:1;paint-order:normal"
       d="m 28.942596,44.660187 -0.0123,1.782406 c -0.0051,0.776219 0.74666,1.401577 1.671828,1.401577 h 21.5138 V 28.80499 h -1.907396 v -2.834946 c 0,-0.776235 -0.625337,-1.398927 -1.401574,-1.398927 H 30.756028 l -4.080183,2.440172 v 18.935856 l 2.266808,-1.286991 M 50.208523,28.80499 v 14.804631 h -19.43214"
       sodipodi:nodetypes="csscccssccccccc"
       transform="translate(26.508938,8.3098709)" /><path
       id="path12"
       style="display:inline;fill:none;fill-opacity:1;stroke:#d9b4c6;stroke-width:0.529167;stroke-linecap:round;stroke-linejoin:round;stroke-dasharray:none;stroke-opacity:1;paint-order:normal"
       d="m 28.930532,44.667098 1.845851,-1.057477 V 24.571117"
       sodipodi:nodetypes="ccc"
       transform="translate(26.508938,8.3098709)" /></g><g
     inkscape:groupmode="layer"
     id="layer4"
     inkscape:label="Visible Letter "
     style="display:none"
     transform="translate(6.4266848,-31.294204)"
     sodipodi:insensitive="true"><path
       id="path39"
       style="fill:#efcfe5;fill-opacity:1;stroke:#efcfe5;stroke-width:0.529167;stroke-linecap:round;stroke-linejoin:round;stroke-dasharray:none;stroke-opacity:1;paint-order:normal"
       d="m 4.8146525,35.649125 v 3.479328 h 1.5531497 v 2.103912 0.421488 2.547782 H 4.8146525 v 3.035454 H 10.77896 V 44.201633 H 9.3008764 V 41.653851 41.232365 39.128453 H 10.77896 V 35.649125 H 4.8146525"
       sodipodi:nodetypes="ccccccccccccccccc" /><g
       id="g38"
       style="display:inline"
       transform="translate(20.214336,39.936413)"><path
         id="path34"
         style="fill:#bb90ae;fill-opacity:1;stroke:#bb90ae;stroke-width:0.529167;stroke-linecap:round;stroke-linejoin:round;stroke-dasharray:none;stroke-opacity:1;paint-order:normal"
         d="m -23.977612,11.843737 -0.0123,1.782406 c -0.0054,0.776217 0.74666,1.401576 1.671828,1.401576 h 21.51380115 l 2.1553e-4,-18.8391535 H -2.7114663 l -2e-6,14.8046315 -19.4323567,-0.200026 -1.83373,1.050532"
         sodipodi:nodetypes="csscccccc" /><path
         id="path35"
         style="fill:#d9b4c6;fill-opacity:1;stroke:none;stroke-width:0.529167;stroke-linecap:round;stroke-linejoin:round;stroke-dasharray:none;stroke-opacity:1;paint-order:normal"
         d="m -22.163799,-8.0452119 0.01964,18.4210979 5.17e-4,0.617533 h 0.525549 18.9068565 v -14.8047809 -2.834969 c 0,-0.7762336 -0.6257462,-1.398881 -1.4019816,-1.398881 z m 6.989754,3.9377441 h 5.4730513 c 0.1461703,-5.616e-4 0.2650998,0.1173793 0.2656169,0.2635498 v 1.9962605 c -5.172e-4,0.1461705 -0.1194466,0.2641114 -0.2656169,0.2635498 h -1.0919233 v 6.115389 h 1.0919233 c 0.1469338,-5.647e-4 0.2661816,0.1186831 0.2656169,0.2656168 v 1.9941935 c 5.647e-4,0.1469338 -0.1186831,0.2661816 -0.2656169,0.2656169 h -5.4730513 c -0.146933,5.647e-4 -0.266181,-0.1186831 -0.265616,-0.2656169 V 4.7968981 c -5.65e-4,-0.1469337 0.118683,-0.2661815 0.265616,-0.2656168 h 1.160136 v -6.115389 h -1.160136 c -0.146169,5.616e-4 -0.265099,-0.1173793 -0.265616,-0.2635498 V -3.843918 c 5.03e-4,-0.1461766 0.119441,-0.2641261 0.265616,-0.2635498 z" /><path
         id="path36"
         style="fill:#efcfe5;fill-opacity:1;stroke:#efcfe5;stroke-width:0.529167;stroke-linecap:round;stroke-linejoin:round;stroke-dasharray:none;stroke-opacity:1;paint-order:normal"
         d="m -22.143825,10.793171 -0.02013,-18.8384785 -4.080183,2.440172 -2.16e-4,18.7358295 z"
         sodipodi:nodetypes="ccccc" /><path
         id="path37"
         style="fill:none;fill-opacity:1;stroke:none;stroke-width:0.529167;stroke-linecap:round;stroke-linejoin:round;stroke-dasharray:none;stroke-opacity:1;paint-order:normal"
         d="m -22.163799,-8.0452119 0.01964,18.4210979 5.17e-4,0.617533 h 0.525549 18.9068565 v -14.8047809 -2.834969 c 0,-0.7762343 -0.6257454,-1.398881 -1.4019816,-1.398881 z m 7.009682,4.2344162 h 5.4735025 V -1.815781 H -11.036976 V 1.3128937 1.6993922 4.828067 h 1.3563615 V 6.8230816 H -15.154117 V 4.828067 h 1.425602 V 1.6993922 1.3128937 -1.815781 h -1.425602 z"
         sodipodi:nodetypes="ccccccsscccccccccccccccccc" /><path
         id="path38"
         style="display:inline;fill:none;fill-opacity:1;stroke:#d9b4c6;stroke-width:0.529167;stroke-linecap:round;stroke-linejoin:round;stroke-dasharray:none;stroke-opacity:1;paint-order:normal"
         d="m -22.163799,-8.0452119 0.01964,18.4210979 5.17e-4,0.617533 h 0.525549 18.9068565 v -14.8047809 -2.834969 c 0,-0.7762343 -0.6257454,-1.398881 -1.4019816,-1.398881 z"
         sodipodi:nodetypes="ccccccssc" /></g></g><g
     inkscape:groupmode="layer"
     id="layer3"
     inkscape:label="Transparent Letter"
     style="display:none"
     transform="translate(6.4266848,-31.294204)"
     sodipodi:insensitive="true"><g
       id="g34"
       style="display:inline"
       transform="translate(26.508938,8.3098709)"><path
         id="path18"
         style="fill:#bb90ae;fill-opacity:1;stroke:#bb90ae;stroke-width:0.529167;stroke-linecap:round;stroke-linejoin:round;stroke-dasharray:none;stroke-opacity:1;paint-order:normal"
         d="m -23.977612,11.843737 -0.0123,1.782406 c -0.0054,0.776217 0.74666,1.401576 1.671828,1.401576 h 21.51380115 l 2.1553e-4,-18.8391535 H -2.7114663 l -2e-6,14.8046315 -19.4323567,-0.200026 -1.83373,1.050532"
         sodipodi:nodetypes="csscccccc" /><path
         id="path32"
         style="fill:#d9b4c6;fill-opacity:1;stroke:none;stroke-width:0.529167;stroke-linecap:round;stroke-linejoin:round;stroke-dasharray:none;stroke-opacity:1;paint-order:normal"
         d="m -22.163799,-8.0452119 0.01964,18.4210979 5.17e-4,0.617533 h 0.525549 18.9068565 v -14.8047809 -2.834969 c 0,-0.7762336 -0.6257462,-1.398881 -1.4019816,-1.398881 z m 6.989754,3.9377441 h 5.4730513 c 0.1461703,-5.616e-4 0.2650998,0.1173793 0.2656169,0.2635498 v 1.9962605 c -5.172e-4,0.1461705 -0.1194466,0.2641114 -0.2656169,0.2635498 h -1.0919233 v 6.115389 h 1.0919233 c 0.1469338,-5.647e-4 0.2661816,0.1186831 0.2656169,0.2656168 v 1.9941935 c 5.647e-4,0.1469338 -0.1186831,0.2661816 -0.2656169,0.2656169 h -5.4730513 c -0.146933,5.647e-4 -0.266181,-0.1186831 -0.265616,-0.2656169 V 4.7968981 c -5.65e-4,-0.1469337 0.118683,-0.2661815 0.265616,-0.2656168 h 1.160136 v -6.115389 h -1.160136 c -0.146169,5.616e-4 -0.265099,-0.1173793 -0.265616,-0.2635498 V -3.843918 c 5.03e-4,-0.1461766 0.119441,-0.2641261 0.265616,-0.2635498 z" /><path
         id="path19"
         style="fill:#efcfe5;fill-opacity:1;stroke:#efcfe5;stroke-width:0.529167;stroke-linecap:round;stroke-linejoin:round;stroke-dasharray:none;stroke-opacity:1;paint-order:normal"
         d="m -22.143825,10.793171 -0.02013,-18.8384785 -4.080183,2.440172 -2.16e-4,18.7358295 z"
         sodipodi:nodetypes="ccccc" /><path
         id="path23"
         style="fill:none;fill-opacity:1;stroke:none;stroke-width:0.529167;stroke-linecap:round;stroke-linejoin:round;stroke-dasharray:none;stroke-opacity:1;paint-order:normal"
         d="m -22.163799,-8.0452119 0.01964,18.4210979 5.17e-4,0.617533 h 0.525549 18.9068565 v -14.8047809 -2.834969 c 0,-0.7762343 -0.6257454,-1.398881 -1.4019816,-1.398881 z m 7.009682,4.2344162 h 5.4735025 V -1.815781 H -11.036976 V 1.3128937 1.6993922 4.828067 h 1.3563615 V 6.8230816 H -15.154117 V 4.828067 h 1.425602 V 1.6993922 1.3128937 -1.815781 h -1.425602 z"
         sodipodi:nodetypes="ccccccsscccccccccccccccccc" /><path
         id="path22"
         style="display:inline;fill:none;fill-opacity:1;stroke:#d9b4c6;stroke-width:0.529167;stroke-linecap:round;stroke-linejoin:round;stroke-dasharray:none;stroke-opacity:1;paint-order:normal"
         d="m -22.163799,-8.0452119 0.01964,18.4210979 5.17e-4,0.617533 h 0.525549 18.9068565 v -14.8047809 -2.834969 c 0,-0.7762343 -0.6257454,-1.398881 -1.4019816,-1.398881 z"
         sodipodi:nodetypes="ccccccssc" /></g></g><g
     inkscape:groupmode="layer"
     id="layer2"
     inkscape:label="Extra Parts"
     style="display:none"
     transform="translate(32.935621,-22.984333)"
     sodipodi:insensitive="true"><path
       id="path25"
       style="opacity:0.533163;fill:#dd98ba;fill-opacity:1;stroke:none;stroke-width:1.32292;stroke-linecap:round;stroke-linejoin:round;stroke-dasharray:none;stroke-opacity:1;paint-order:stroke fill markers"
       d="m 82.780376,-20.808439 v 19.038504 l -0.135406,0.077567 v -19.035095 l -3.944777,2.359196 V 0.56758865 L 80.95488,-0.7227094 82.780376,-1.769935 h 19.452504 v 0.1357441 l -19.452504,3.764e-4 -1.83373,1.04724501 0.0082,1.64960669 c 0.0039,0.776227 0.746659,1.4015763 1.671827,1.4015763 H 104.14048 V -16.574566 H 102.369 V 2.4646187 l -0.13612,-6e-7 c 7e-5,-6.5132365 -10e-6,-12.6935601 -10e-6,-19.0391841 v -2.834947 c 0,-0.776234 -0.62534,-1.398926 -1.40157,-1.398926 z m 6.989334,4.233873 h 5.473832 v 1.939422 h -1.356534 v 6.700542 h 1.356534 v 1.995061 H 89.76971 v -1.995061 h 1.425421 v -6.700542 H 89.76971 Z"
       sodipodi:nodetypes="ccccccccccccssccccccsscccccccccccccc" /><path
       id="path26"
       style="opacity:0.533163;fill:#dd98ba;fill-opacity:1;stroke:none;stroke-width:1.32292;stroke-linecap:round;stroke-linejoin:round;stroke-dasharray:none;stroke-opacity:1;paint-order:stroke fill markers"
       d="m 9.8055561,-18.773603 -4.0801829,2.440172 V 2.6024249 L 7.9800604,1.3121268 7.9800297,3.0978734 C 7.9800143,3.8741102 8.7266889,4.4994498 9.651857,4.4994498 H 31.165659 V -14.539729 h -1.907605 v -2.834947 c 0,-0.776235 -0.625338,-1.398927 -1.401575,-1.398927 z m 6.9893349,4.233874 h 5.473831 v 1.939421 h -1.356534 v 6.7005422 h 1.356534 v 1.995061 h -5.473831 v -1.995061 h 1.42542 v -6.7005422 h -1.42542 z"
       sodipodi:nodetypes="ccccsscccsscccccccccccccc" /><path
       id="path7"
       style="display:inline;opacity:1;fill:#d9b4c6;fill-opacity:1;stroke:#d9b4c6;stroke-width:0.529167;stroke-linecap:round;stroke-linejoin:round;stroke-dasharray:none;stroke-opacity:1;paint-order:markers stroke fill"
       d="m 71.610178,-14.499831 v -2.834946 c 0,-0.776235 -0.625337,-1.398927 -1.401574,-1.398927 H 52.157678 l 0.02035,19.03856771 19.432143,-6.366e-5 V -14.499831"
       sodipodi:nodetypes="csscccc" /><path
       id="path6"
       style="opacity:1;fill:#e3e3e3;fill-opacity:1;stroke:#e3e3e3;stroke-width:0.529167;stroke-linecap:round;stroke-linejoin:round;stroke-dasharray:none;stroke-opacity:1;paint-order:markers stroke fill"
       d="m 59.167367,-14.499831 v 1.995061 h 1.425426 v 3.1290391 0.386827 3.129039 h -1.425426 v 1.995058 h 5.473831 v -1.99506 h -1.356533 v -3.129039 -0.386825 -3.1290391 h 1.356533 v -1.995061 h -5.473831"
       sodipodi:nodetypes="ccccccccccccccccc" /><path
       id="path28"
       style="display:inline;opacity:1;fill:#bb90ae;fill-opacity:1;stroke:#bb90ae;stroke-width:1.05833;stroke-linecap:round;stroke-linejoin:round;stroke-dasharray:none;stroke-opacity:1;paint-order:normal"
       d="m 66.106341,30.300304 -0.0123,1.782407 c -0.0051,0.776218 0.74666,1.401576 1.671828,1.401576 h 21.5138 v -19.03918 h -1.907396 -3e-6 l -2e-6,14.804631 -19.432145,6.4e-5 -4e-6,6.4e-5 -1.833778,1.050438"
       sodipodi:nodetypes="csscccccccc" /><path
       id="path4"
       style="display:inline;opacity:1;fill:#e0bcd5;fill-opacity:1;stroke:#e0bcd5;stroke-width:1.05833;stroke-linecap:round;stroke-linejoin:round;stroke-dasharray:none;stroke-opacity:1;paint-order:normal"
       d="m 67.940115,29.249866 -0.02015,-19.038632 -4.080371,2.440161 v 18.935796 m 0,0 4.100525,-2.337325 z"
       sodipodi:nodetypes="ccccccc" /><path
       id="path5"
       style="display:inline;opacity:1;fill:#e0bcd5;fill-opacity:1;stroke:#e0bcd5;stroke-width:1.05833;stroke-linecap:round;stroke-linejoin:round;stroke-dasharray:none;stroke-opacity:1;paint-order:normal"
       d="m 87.372273,14.445107 v -2.834946 c 0,-0.776235 -0.625337,-1.398927 -1.401574,-1.398927 H 67.919773 l 0.02035,19.038568 19.432143,-6.4e-5 V 14.445107"
       sodipodi:nodetypes="csscccc" /><path
       id="path27"
       style="opacity:1;fill:#f4d0e9;fill-opacity:1;stroke:#f4d0e9;stroke-width:0.529167;stroke-linecap:round;stroke-linejoin:round;stroke-dasharray:none;stroke-opacity:1;paint-order:normal"
       d="m 74.929462,14.445107 v 1.995061 h 1.425426 v 3.129039 0.386827 3.129039 h -1.425426 v 1.995058 h 5.473831 v -1.99506 H 79.04676 v -3.129039 -0.386825 -3.129039 h 1.356533 v -1.995061 h -5.473831"
       sodipodi:nodetypes="ccccccccccccccccc" /><path
       id="path20"
       style="display:inline;fill:#d9b4c6;fill-opacity:1;stroke:#d9b4c6;stroke-width:0.529167;stroke-linecap:round;stroke-linejoin:round;stroke-dasharray:none;stroke-opacity:1;paint-order:normal"
       d="m -48.447885,-8.0441387 h 0.525688 18.906453 l 2e-6,-14.8046313 3e-6,-2.834946 c 0,-0.776235 -0.625337,-1.398927 -1.401574,-1.398927 H -48.46824 l 0.01969,18.4213473 z"
       sodipodi:nodetypes="cccccsccc" /><path
       id="path21"
       style="display:inline;fill:#efcfe5;fill-opacity:1;stroke:#efcfe5;stroke-width:0.529167;stroke-linecap:round;stroke-linejoin:round;stroke-dasharray:none;stroke-opacity:1;paint-order:normal"
       d="m -41.478905,-22.880903 v 1.995061 h 1.425426 v 3.12904 0.386826 3.129039 h -1.425426 v 1.995059 h 5.473831 v -1.995061 h -1.356533 v -3.129039 -0.386824 -3.12904 h 1.356533 v -1.995061 h -5.473831"
       sodipodi:nodetypes="ccccccccccccccccc" /><path
       style="color:#000000;display:inline;fill:#efcfe5;stroke-linecap:round;stroke-linejoin:round;-inkscape-stroke:none"
       d="m -10.302513,-33.43316 v 1.995061 h 1.4254263 v 6.644905 h -1.4254263 v 1.995059 h 5.4738309 v -1.995061 h -1.3565326 v -6.644903 h 1.3565326 v -1.995061 h -5.4738309"
       id="path30" /><path
       id="path33"
       style="display:inline;fill:none;fill-opacity:1;stroke:#efcfe5;stroke-width:0.529167;stroke-linecap:round;stroke-linejoin:round;stroke-dasharray:none;stroke-opacity:1;paint-order:normal"
       d="m -19.984943,-25.593053 v 1.995061 h 1.425426 v 3.12904 0.386826 3.129039 h -1.425426 v 1.995059 h 5.473831 v -1.995061 h -1.356533 v -3.129039 -0.386824 -3.12904 h 1.356533 v -1.995061 h -5.473831"
       sodipodi:nodetypes="ccccccccccccccccc" /><path
       id="path34-9"
       style="display:inline;fill:none;fill-opacity:1;stroke:#d9b4c6;stroke-width:0.529167;stroke-linecap:round;stroke-linejoin:round;stroke-dasharray:none;stroke-opacity:1;paint-order:normal"
       d="m -17.213504,83.447154 -0.0123,1.782406 c -0.0054,0.776217 0.74666,1.401576 1.671828,1.401576 H 5.9598247 l 2.155e-4,-18.839153 h -1.907399 l -2e-6,14.804631 -19.4323562,-0.200026 -1.83373,1.050532"
       sodipodi:nodetypes="csscccccc"
       transform="translate(1.1026598e-6)" /><path
       id="path35-2"
       style="display:inline;fill:none;fill-opacity:1;stroke:#d9b4c6;stroke-width:0.529167;stroke-linecap:round;stroke-linejoin:round;stroke-dasharray:none;stroke-opacity:1;paint-order:normal"
       d="m -15.399691,63.558205 0.01964,18.421098 5.17e-4,0.617533 h 0.525549 18.906856 V 67.792055 64.957086 c 0,-0.776234 -0.6257462,-1.398881 -1.4019815,-1.398881 z m 6.9897535,3.937744 h 5.473051 c 0.146171,-5.61e-4 0.2651,0.117379 0.265617,0.26355 v 1.99626 c -5.17e-4,0.146171 -0.119446,0.264112 -0.265617,0.26355 h -1.091923 v 6.115389 h 1.091923 c 0.146934,-5.64e-4 0.266182,0.118683 0.265617,0.265617 v 1.994194 c 5.65e-4,0.146933 -0.118683,0.266181 -0.265617,0.265617 h -5.473051 c -0.146933,5.64e-4 -0.266181,-0.118684 -0.265616,-0.265617 v -1.994194 c -5.65e-4,-0.146934 0.118683,-0.266181 0.265616,-0.265617 h 1.160136 v -6.115389 h -1.160136 c -0.146169,5.62e-4 -0.265099,-0.117379 -0.265616,-0.26355 v -1.99626 c 5.03e-4,-0.146177 0.119441,-0.264126 0.265616,-0.26355 z"
       transform="translate(1.1026598e-6)" /><path
       id="path36-6"
       style="display:inline;fill:none;fill-opacity:1;stroke:#d9b4c6;stroke-width:0.529167;stroke-linecap:round;stroke-linejoin:round;stroke-dasharray:none;stroke-opacity:1;paint-order:normal"
       d="m -15.379717,82.396588 -0.02013,-18.838479 -4.080183,2.440172 -2.16e-4,18.73583 z"
       sodipodi:nodetypes="ccccc"
       transform="translate(1.1026598e-6)" /><path
       id="path37-2"
       style="display:inline;fill:none;fill-opacity:1;stroke:#d9b4c6;stroke-width:0.529167;stroke-linecap:round;stroke-linejoin:round;stroke-dasharray:none;stroke-opacity:1;paint-order:normal"
       d="m -15.399691,63.558205 0.01964,18.421098 5.17e-4,0.617533 h 0.525549 18.906856 V 67.792055 64.957086 c 0,-0.776234 -0.6257454,-1.398881 -1.4019815,-1.398881 z m 7.0096815,4.234416 h 5.473502 v 1.995015 h -1.356361 v 3.128675 0.386498 3.128675 h 1.356361 v 1.995015 h -5.473502 v -1.995015 h 1.425602 v -3.128675 -0.386498 -3.128675 h -1.425602 z"
       sodipodi:nodetypes="ccccccsscccccccccccccccccc"
       transform="translate(1.1026598e-6)" /><path
       id="path38-0"
       style="display:inline;fill:none;fill-opacity:1;stroke:#d9b4c6;stroke-width:0.529167;stroke-linecap:round;stroke-linejoin:round;stroke-dasharray:none;stroke-opacity:1;paint-order:normal"
       d="m -15.399691,63.558205 0.01964,18.421098 5.17e-4,0.617533 h 0.525549 18.906856 V 67.792055 64.957086 c 0,-0.776234 -0.6257454,-1.398881 -1.4019815,-1.398881 z"
       sodipodi:nodetypes="ccccccssc"
       transform="translate(1.1026598e-6)" /></g><g
     inkscape:label="Working Layer"
     inkscape:groupmode="layer"
     id="layer1"
     transform="translate(32.935621,-22.984333)"
     style="display:inline"><path
       id="path11-6"
       style="display:inline;fill:none;fill-opacity:1;stroke:#dd98ba;stroke-width:1.32292;stroke-linecap:round;stroke-linejoin:round;stroke-dasharray:none;stroke-opacity:1;paint-order:normal"
       d="m -30.007412,43.734861 -0.0123,1.782406 c -0.0051,0.776219 0.74666,1.401577 1.671828,1.401577 h 21.5138001 v -19.03918 h -1.907396 v -2.834946 c 0,-0.776235 -0.6253367,-1.398927 -1.4015741,-1.398927 H -28.19398 l -4.080183,2.440172 v 18.935856 l 2.266808,-1.286991 M -8.7414849,27.879664 V 42.684295 H -28.173625"
       sodipodi:nodetypes="csscccssccccccc" /><path
       id="path12-3"
       style="display:inline;fill:none;fill-opacity:1;stroke:#dd98ba;stroke-width:1.32292;stroke-linecap:round;stroke-linejoin:round;stroke-dasharray:none;stroke-opacity:1;paint-order:normal"
       d="m -30.019476,43.741772 1.845851,-1.057477 V 23.645791"
       sodipodi:nodetypes="ccc" /><text
       xml:space="preserve"
       style="font-size:16.8983px;line-height:1;font-family:sans-serif;fill:#dd98ba;fill-opacity:1;stroke-width:0.264584"
       x="-23.754044"
       y="38.997906"
       id="text39"><tspan
         sodipodi:role="line"
         id="tspan39"
         style="font-style:normal;font-variant:normal;font-weight:800;font-stretch:normal;font-size:15.875px;font-family:'Artifakt Element';-inkscape-font-specification:'Artifakt Element, Ultra-Bold';font-variant-ligatures:normal;font-variant-caps:normal;font-variant-numeric:normal;font-variant-east-asian:normal;fill:#dd98ba;fill-opacity:1;stroke-width:0.264584"
         x="-23.754044"
         y="38.997906">R</tspan></text><text
       xml:space="preserve"
       style="font-size:16.8983px;line-height:1;font-family:sans-serif;fill:#dd98ba;fill-opacity:1;stroke-width:0.264584"
       x="-6.1726251"
       y="39.054745"
       id="text40"><tspan
         sodipodi:role="line"
         id="tspan40"
         style="font-style:normal;font-variant:normal;font-weight:800;font-stretch:normal;font-size:16.8983px;font-family:'Artifakt Element';-inkscape-font-specification:'Artifakt Element, Ultra-Bold';font-variant-ligatures:normal;font-variant-caps:normal;font-variant-numeric:normal;font-variant-east-asian:normal;fill:#dd98ba;fill-opacity:1;stroke-width:0.264584"
         x="-6.1726251"
         y="39.054745" /></text></g></svg>
