<?xml version="1.0" encoding="UTF-8" standalone="no"?>
<!-- Created with Inkscape (http://www.inkscape.org/) -->

<svg
   width="487.88086"
   height="516.43732"
   viewBox="0 0 129.08514 136.64071"
   version="1.1"
   id="svg5"
   inkscape:version="1.3 (0e150ed6c4, 2023-07-21)"
   xml:space="preserve"
   sodipodi:docname="Solidworks.svg"
   xmlns:inkscape="http://www.inkscape.org/namespaces/inkscape"
   xmlns:sodipodi="http://sodipodi.sourceforge.net/DTD/sodipodi-0.dtd"
   xmlns="http://www.w3.org/2000/svg"
   xmlns:svg="http://www.w3.org/2000/svg"><sodipodi:namedview
     id="namedview7"
     pagecolor="#d5d5d5"
     bordercolor="#eeeeee"
     borderopacity="1"
     inkscape:showpageshadow="0"
     inkscape:pageopacity="0"
     inkscape:pagecheckerboard="0"
     inkscape:deskcolor="#c4af84"
     inkscape:document-units="px"
     showgrid="false"
     inkscape:zoom="0.54211407"
     inkscape:cx="344.94585"
     inkscape:cy="427.0319"
     inkscape:window-width="1835"
     inkscape:window-height="2030"
     inkscape:window-x="0"
     inkscape:window-y="0"
     inkscape:window-maximized="0"
     inkscape:current-layer="layer6"
     showguides="false"><sodipodi:guide
       position="21.238556,142.76018"
       orientation="-0.36868745,0.92955342"
       id="guide4"
       inkscape:locked="false" /><sodipodi:guide
       position="64.90815,126.22837"
       orientation="-0.34584756,0.93829071"
       id="guide5"
       inkscape:label=""
       inkscape:locked="false"
       inkscape:color="rgb(0,134,229)" /><sodipodi:guide
       position="21.238556,142.76018"
       orientation="0.35404533,0.93522826"
       id="guide6"
       inkscape:locked="false" /><sodipodi:guide
       position="64.045648,159.7387"
       orientation="0.36500897,0.931004"
       id="guide7"
       inkscape:label=""
       inkscape:locked="false"
       inkscape:color="rgb(0,134,229)" /><sodipodi:guide
       position="64.908152,126.22837"
       orientation="1,0"
       id="guide8"
       inkscape:locked="false" /><sodipodi:guide
       position="1.5255805,145.1527"
       orientation="1,0"
       id="guide9"
       inkscape:locked="false" /><sodipodi:guide
       position="126.85019,145.10016"
       orientation="1,0"
       id="guide10"
       inkscape:locked="false" /></sodipodi:namedview><defs
     id="defs2"><clipPath
       clipPathUnits="userSpaceOnUse"
       id="clipPath2"><rect
         style="font-variation-settings:'wght' 700;fill:none;stroke:#dd98ba;stroke-width:1.32292;stroke-linecap:round;stroke-linejoin:round;paint-order:stroke markers fill"
         id="rect3"
         width="130.79388"
         height="138.13799"
         x="39.502277"
         y="79.864433" /></clipPath></defs><g
     inkscape:groupmode="layer"
     id="layer6"
     inkscape:label="Base"
     transform="translate(-40.546666,-80.402504)"
     style="display:none"
     sodipodi:insensitive="true" /><g
     inkscape:label="Layer 1"
     inkscape:groupmode="layer"
     id="layer1"
     transform="translate(-40.546666,-80.402504)"
     style="display:inline"><path
       style="display:inline;fill:#dd98ba;fill-opacity:1;stroke-width:1.32292;stroke-dasharray:none"
       d="M 97.802875,214.69891 C 94.601416,213.41658 86.505166,210.20172 79.811208,207.55478 42.866259,192.9459 43.043401,193.01858 42.189615,192.1189 c -1.81859,-1.91634 -1.681276,1.8208 -1.605351,-43.69127 l 0.06861,-41.12832 0.805498,-1.14724 c 0.443025,-0.63098 1.276462,-1.40241 1.852084,-1.71428 0.575621,-0.31188 14.381584,-5.847694 30.679917,-12.301817 26.433197,-10.467518 29.790487,-11.734629 31.088547,-11.733468 1.26326,0.0011 3.02571,0.624235 13.36146,4.723857 6.54843,2.597405 19.88343,7.877796 29.63333,11.734203 9.74989,3.856405 18.1438,7.225135 18.65312,7.486065 1.18731,0.60826 1.98622,1.472 2.50092,2.70384 0.36368,0.8704 0.40885,5.53319 0.40369,41.66826 -0.006,38.78382 -0.0284,40.73783 -0.48763,41.74879 -0.68675,1.5117 -2.0602,2.59961 -4.44486,3.52076 -1.14023,0.44045 -14.73392,5.81085 -30.20818,11.93421 -24.563,9.71989 -28.30844,11.13177 -29.50104,11.12065 -1.08311,-0.0101 -2.57153,-0.49559 -7.186857,-2.34423 z M 116.6029,212.1873 c 5.66728,-2.24116 19.23383,-7.60689 30.14789,-11.92385 14.00288,-5.53872 20.06487,-8.05801 20.59498,-8.55903 1.76428,-1.66748 1.62153,1.84509 1.71165,-42.11729 0.0601,-29.30545 0.001,-40.19303 -0.22289,-41.2333 -0.53826,-2.49858 -1.20636,-2.93818 -9.38588,-6.17571 -25.26555,-10.000329 -43.57443,-17.243533 -48.12791,-19.039947 -3.0844,-1.216846 -5.66134,-2.079462 -6.2177,-2.081347 -0.63576,-0.0022 -10.974126,3.959446 -31.243693,11.972396 C 40.05279,106.3936 41.936744,105.50625 41.323302,108.35383 c -0.224102,1.04027 -0.282954,11.92785 -0.222883,41.2333 0.07486,36.51897 0.118047,39.88558 0.521023,40.61354 0.948449,1.71331 1.771923,2.14344 11.334558,5.92045 5.16599,2.04045 18.679583,7.39594 30.030208,11.90109 17.003161,6.7487 20.873042,8.19549 21.975022,8.21556 1.134,0.0207 2.90549,-0.5957 11.64167,-4.05047 z M 83.91225,197.71596 c -8.80401,-3.49219 -19.787526,-7.84625 -24.407812,-9.67568 l -8.400521,-3.32625 v -34.36448 c 0,-28.4865 0.06043,-34.36448 0.353309,-34.36448 0.19432,0 8.915648,3.20095 19.380729,7.11323 10.465081,3.91227 21.349138,7.97465 24.186795,9.02749 2.837656,1.05285 5.30864,2.03403 5.49108,2.1804 0.26347,0.21138 0.3179,7.40277 0.26459,34.95587 -0.0592,30.59952 -0.11392,34.69643 -0.464,34.74654 -0.21829,0.0312 -7.60016,-2.80045 -16.40417,-6.29264 z m 16.13958,-28.65294 v -34.23455 l -20.703643,-7.74148 c -11.387005,-4.25781 -22.221692,-8.30737 -24.077082,-8.99901 l -3.373438,-1.25752 v 33.69007 33.69008 l 8.003646,3.1668 c 4.402005,1.74174 11.694583,4.62477 16.205729,6.40671 4.511145,1.78195 11.714427,4.64409 16.007291,6.36032 4.292865,1.71622 7.834974,3.12777 7.871354,3.13677 0.03638,0.009 0.06615,-15.38919 0.06615,-34.21819 z m 10.75973,34.32275 c -0.097,-0.097 -0.17639,-15.63049 -0.17639,-34.51882 0,-32.93038 0.0198,-34.35302 0.48119,-34.59995 0.85406,-0.45708 47.13599,-17.22359 47.54364,-17.22359 0.34678,0 0.39392,4.05014 0.39392,33.84743 v 33.84743 l -2.05052,0.79379 c -1.12779,0.43659 -7.6013,2.99383 -14.38557,5.68276 -23.08718,9.15054 -31.22381,12.34733 -31.42699,12.34733 -0.11159,0 -0.28227,-0.0794 -0.37928,-0.17638 z m 24.5077,-10.08489 c 12.48485,-4.94368 22.75445,-9.04324 22.82134,-9.11013 0.0669,-0.0669 0.0914,-15.00654 0.0544,-33.19921 l -0.0672,-33.07758 -23.34948,8.47209 -23.34948,8.47208 v 33.94859 33.94859 l 0.59531,-0.23296 c 0.32742,-0.12813 10.81019,-4.27779 23.29503,-9.22147 z M 83.721137,117.35993 c -16.330795,-6.09683 -21.75648,-8.22757 -21.761979,-8.54623 -0.0051,-0.29585 0.814601,-0.74341 2.704655,-1.47676 1.491588,-0.57875 11.195581,-4.41455 21.564429,-8.52401 l 18.852448,-7.471747 22.23449,8.796917 c 16.36629,6.47521 22.2143,8.8988 22.15797,9.18293 -0.0498,0.25134 -7.64597,3.14091 -21.77236,8.2822 -11.93271,4.3429 -21.81489,7.89219 -21.96041,7.8873 -0.14552,-0.005 -10.054183,-3.66365 -22.019243,-8.1306 z m 43.016263,-0.20977 c 11.44393,-4.16139 20.95561,-7.6485 21.13708,-7.74914 0.18211,-0.10099 -9.32821,-4.0046 -21.22621,-8.71251 l -21.55615,-8.529545 -20.890582,8.271085 c -11.489819,4.5491 -20.830934,8.3324 -20.758034,8.40733 0.154033,0.15832 41.920016,15.83401 42.259516,15.86093 0.12498,0.01 9.59045,-3.38676 21.03438,-7.54815 z"
       id="path12"
       sodipodi:nodetypes="sssscssscssssccssssssssscsscsssssscssscsssssscsccsscccssssscssssscssssssccccccssssssscscscsssscsscs" /><path
       style="display:inline;fill:#dd98ba;fill-opacity:1;stroke-width:1.32292;stroke-dasharray:none"
       d="M 97.802875,214.69891 C 94.601416,213.41658 86.505166,210.20172 79.811208,207.55478 42.866259,192.9459 43.043401,193.01858 42.189615,192.1189 c -1.81859,-1.91634 -1.681276,1.8208 -1.605351,-43.69127 l 0.06861,-41.12832 0.805498,-1.14724 c 0.443025,-0.63098 1.276462,-1.40241 1.852084,-1.71428 0.575621,-0.31188 14.381584,-5.847694 30.679917,-12.301817 26.433197,-10.467518 29.790487,-11.734629 31.088547,-11.733468 1.26326,0.0011 3.02571,0.624235 13.36146,4.723857 6.54843,2.597405 19.88343,7.877796 29.63333,11.734203 9.74989,3.856405 18.1438,7.225135 18.65312,7.486065 1.18731,0.60826 1.98622,1.472 2.50092,2.70384 0.36368,0.8704 0.40885,5.53319 0.40369,41.66826 -0.006,38.78382 -0.0284,40.73783 -0.48763,41.74879 -0.68675,1.5117 -2.0602,2.59961 -4.44486,3.52076 -1.14023,0.44045 -14.73392,5.81085 -30.20818,11.93421 -24.563,9.71989 -28.30844,11.13177 -29.50104,11.12065 -1.08311,-0.0101 -2.57153,-0.49559 -7.186857,-2.34423 z m 2.248955,-45.63589 v -34.23455 l -20.703643,-7.74148 c -11.387005,-4.25781 -22.221692,-8.30737 -24.077082,-8.99901 l -3.373438,-1.25752 v 33.69007 33.69008 l 8.003646,3.1668 c 4.402005,1.74174 11.694583,4.62477 16.205729,6.40671 4.511145,1.78195 11.714427,4.64409 16.007291,6.36032 4.292865,1.71622 7.834974,3.12777 7.871354,3.13677 0.03638,0.009 0.06615,-15.38919 0.06615,-34.21819 z m 35.26743,24.23786 c 12.48485,-4.94368 22.75445,-9.04324 22.82134,-9.11013 0.0669,-0.0669 0.0914,-15.00654 0.0544,-33.19921 l -0.0672,-33.07758 -23.34948,8.47209 -23.34948,8.47208 v 33.94859 33.94859 l 0.59531,-0.23296 c 0.32742,-0.12813 10.81019,-4.27779 23.29503,-9.22147 z m -8.58186,-76.15072 c 11.44393,-4.16139 20.95561,-7.6485 21.13708,-7.74914 0.18211,-0.10099 -9.32821,-4.0046 -21.22621,-8.71251 l -21.55615,-8.529545 -20.890582,8.271085 c -11.489819,4.5491 -20.830934,8.3324 -20.758034,8.40733 0.154033,0.15832 41.920016,15.83401 42.259516,15.86093 0.12498,0.01 9.59045,-3.38676 21.03438,-7.54815 z"
       id="path13"
       sodipodi:nodetypes="sssscssscssssccsssssccsscccssssscssccccccsssssscsscs" /><path
       style="display:inline;fill:#dd9abb;fill-opacity:1;stroke-width:1.32292;stroke-dasharray:none"
       d="m 77.158958,185.73829 c -7.777591,-2.52042 -13.728202,-9.84475 -14.329099,-17.63702 -0.155639,-2.01829 -0.138587,-2.10995 0.392549,-2.10995 0.489909,0 5.557884,1.71318 5.808064,1.96336 0.05338,0.0534 0.212138,0.90969 0.352795,1.90291 0.641504,4.52984 3.611444,7.81665 8.102762,8.96727 1.924137,0.49294 3.279843,0.16223 4.151992,-1.01284 0.843886,-1.13698 0.79462,-4.58576 -0.09122,-6.38584 -0.783039,-1.59118 -3.038902,-3.88443 -6.233507,-6.33682 -6.81716,-5.2333 -9.871061,-9.11672 -11.137954,-14.16331 -0.670589,-2.67126 -0.429973,-6.55411 0.538148,-8.6842 1.413986,-3.1111 3.860687,-4.64087 7.420391,-4.63951 6.783617,0.003 13.393449,5.20494 15.872043,12.49231 0.792483,2.32999 1.327372,6.08355 0.92435,6.48657 -0.186604,0.1866 -1.243693,-0.0591 -3.360406,-0.78122 l -3.088162,-1.05347 -0.316962,-1.91308 c -0.569776,-3.43897 -2.271664,-5.89328 -5.006265,-7.2196 -1.725654,-0.83696 -4.340555,-1.03532 -5.306319,-0.40253 -0.924208,0.60557 -1.486573,2.06128 -1.486573,3.84809 0,2.86603 1.705922,5.20565 6.497447,8.91104 4.395149,3.39887 6.181715,5.02609 7.933271,7.22573 2.902495,3.64502 4.222288,7.31061 4.239699,11.77535 0.01776,4.55402 -1.236781,7.23912 -4.048532,8.6651 -1.242192,0.62998 -1.738948,0.72602 -3.702349,0.71577 -1.612519,-0.008 -2.804593,-0.18584 -4.126161,-0.61411 z"
       id="path4"
       sodipodi:nodetypes="ssssssssssscssccsssssssscss" /><path
       style="display:inline;fill:#dd98ba;fill-opacity:1;stroke-width:1.32292;stroke-dasharray:none"
       d="m 124.26273,188.94393 c -0.30745,-0.89067 -7.55185,-43.71235 -7.44305,-43.99588 0.16178,-0.42159 5.76245,-2.30519 6.03722,-2.03041 0.1141,0.11409 1.25065,7.07715 2.52567,15.47346 1.27502,8.39631 2.36122,15.13864 2.41377,14.98294 0.0525,-0.15569 1.36311,-7.97504 2.91235,-17.37633 l 2.81681,-17.09326 2.44335,-0.79909 c 1.52277,-0.49802 2.52761,-0.7036 2.66698,-0.54563 0.12301,0.13941 1.4022,6.77868 2.84265,14.75393 1.54388,8.54783 2.6966,14.30442 2.808,14.02292 0.15823,-0.39983 1.42447,-9.84225 3.83683,-28.61154 0.24938,-1.94025 0.57836,-3.68217 0.73107,-3.87093 0.36892,-0.456 5.22506,-2.04769 5.47594,-1.79484 0.21886,0.22058 -6.54491,47.06793 -6.88454,47.68385 -0.32528,0.58987 -5.33266,2.53923 -5.56344,2.16583 -0.17883,-0.28936 -5.48338,-27.90408 -5.67508,-29.54367 -0.0769,-0.65742 -0.0996,-0.61799 -0.13245,0.22961 -0.0369,0.95397 -5.46346,33.11273 -5.74985,34.07493 -0.0777,0.26098 -1.22195,0.87606 -2.83245,1.52252 -2.9999,1.20417 -3.06808,1.22004 -3.22978,0.75159 z"
       id="path5"
       sodipodi:nodetypes="sssscscsssssssssccsss" /></g></svg>
